<mxfile host="app.diagrams.net" modified="2023-04-07T20:41:43.678Z" agent="Mozilla/5.0 (Macintosh; Intel Mac OS X 10_15_7) AppleWebKit/537.36 (KHTML, like Gecko) Chrome/111.0.0.0 Safari/537.36" etag="-PVbmZ1-HFUGHJOMWaqf" version="21.1.5" type="device">
  <diagram name="Page-1" id="8oQsPkbS1RpQq4mQJNS0">
    <mxGraphModel dx="1143" dy="731" grid="1" gridSize="10" guides="1" tooltips="1" connect="1" arrows="1" fold="1" page="1" pageScale="1" pageWidth="850" pageHeight="1100" math="0" shadow="0">
      <root>
        <mxCell id="0" />
        <mxCell id="1" parent="0" />
        <mxCell id="DP-tnUumiwo_Snd--f2V-2" value="Close position" style="shape=step;perimeter=stepPerimeter;whiteSpace=wrap;html=1;fixedSize=1;" vertex="1" parent="1">
          <mxGeometry x="200" y="270" width="140" height="80" as="geometry" />
        </mxCell>
        <mxCell id="DP-tnUumiwo_Snd--f2V-3" value="Recalculate Range" style="shape=step;perimeter=stepPerimeter;whiteSpace=wrap;html=1;fixedSize=1;" vertex="1" parent="1">
          <mxGeometry x="330" y="270" width="160" height="80" as="geometry" />
        </mxCell>
        <mxCell id="DP-tnUumiwo_Snd--f2V-4" value="Out of range" style="shape=step;perimeter=stepPerimeter;whiteSpace=wrap;html=1;fixedSize=1;" vertex="1" parent="1">
          <mxGeometry x="70" y="270" width="140" height="80" as="geometry" />
        </mxCell>
        <mxCell id="DP-tnUumiwo_Snd--f2V-5" value="Swap ETH &amp;lt;&amp;gt; USDC" style="shape=step;perimeter=stepPerimeter;whiteSpace=wrap;html=1;fixedSize=1;" vertex="1" parent="1">
          <mxGeometry x="480" y="270" width="200" height="80" as="geometry" />
        </mxCell>
        <mxCell id="DP-tnUumiwo_Snd--f2V-8" style="edgeStyle=orthogonalEdgeStyle;rounded=0;orthogonalLoop=1;jettySize=auto;html=1;entryX=0;entryY=0.5;entryDx=0;entryDy=0;exitX=1;exitY=0.5;exitDx=0;exitDy=0;" edge="1" parent="1" source="DP-tnUumiwo_Snd--f2V-6" target="DP-tnUumiwo_Snd--f2V-4">
          <mxGeometry relative="1" as="geometry">
            <Array as="points">
              <mxPoint x="870" y="310" />
              <mxPoint x="870" y="550" />
              <mxPoint x="40" y="550" />
              <mxPoint x="40" y="310" />
            </Array>
          </mxGeometry>
        </mxCell>
        <mxCell id="DP-tnUumiwo_Snd--f2V-6" value="Open New Range" style="shape=step;perimeter=stepPerimeter;whiteSpace=wrap;html=1;fixedSize=1;" vertex="1" parent="1">
          <mxGeometry x="670" y="270" width="190" height="80" as="geometry" />
        </mxCell>
        <mxCell id="DP-tnUumiwo_Snd--f2V-7" value="Collect fees" style="shape=step;perimeter=stepPerimeter;whiteSpace=wrap;html=1;fixedSize=1;" vertex="1" parent="1">
          <mxGeometry x="200" y="180" width="140" height="80" as="geometry" />
        </mxCell>
        <mxCell id="DP-tnUumiwo_Snd--f2V-14" style="edgeStyle=orthogonalEdgeStyle;rounded=0;orthogonalLoop=1;jettySize=auto;html=1;entryX=0.537;entryY=1.042;entryDx=0;entryDy=0;entryPerimeter=0;exitX=1;exitY=0.5;exitDx=0;exitDy=0;" edge="1" parent="1" source="DP-tnUumiwo_Snd--f2V-12" target="DP-tnUumiwo_Snd--f2V-5">
          <mxGeometry relative="1" as="geometry" />
        </mxCell>
        <mxCell id="DP-tnUumiwo_Snd--f2V-12" value="&lt;ol style=&quot;border-color: var(--border-color); text-align: left;&quot;&gt;&lt;li style=&quot;border-color: var(--border-color);&quot;&gt;Get price from pool w/ uniswap.py&lt;/li&gt;&lt;li style=&quot;border-color: var(--border-color);&quot;&gt;Calculate new range from percentage variable&lt;/li&gt;&lt;li&gt;&lt;span style=&quot;background-color: initial;&quot;&gt;Get tick price range&lt;/span&gt;&lt;br&gt;&lt;/li&gt;&lt;li style=&quot;border-color: var(--border-color);&quot;&gt;&lt;span style=&quot;border-color: var(--border-color); background-color: initial;&quot;&gt;Calculate token amounts for position based on range&lt;/span&gt;&lt;/li&gt;&lt;li style=&quot;border-color: var(--border-color);&quot;&gt;&lt;span style=&quot;border-color: var(--border-color); background-color: initial;&quot;&gt;Calculate swap amounts&lt;/span&gt;&lt;/li&gt;&lt;/ol&gt;" style="rounded=0;whiteSpace=wrap;html=1;" vertex="1" parent="1">
          <mxGeometry x="305" y="370" width="210" height="140" as="geometry" />
        </mxCell>
      </root>
    </mxGraphModel>
  </diagram>
</mxfile>
